<mxfile host="app.diagrams.net" modified="2024-01-30T13:46:18.022Z" agent="Mozilla/5.0 (Windows NT 10.0; Win64; x64) AppleWebKit/537.36 (KHTML, like Gecko) Chrome/120.0.0.0 Safari/537.36" etag="q3MbuWv0TYUlyi9YA2De" version="23.0.2" type="github">
  <diagram name="Page-1" id="74b105a0-9070-1c63-61bc-23e55f88626e">
    <mxGraphModel dx="1434" dy="772" grid="1" gridSize="10" guides="1" tooltips="1" connect="1" arrows="1" fold="1" page="1" pageScale="1.5" pageWidth="1169" pageHeight="826" background="none" math="0" shadow="0">
      <root>
        <mxCell id="0" style=";html=1;" />
        <mxCell id="1" style=";html=1;" parent="0" />
        <mxCell id="10b056a9c633e61c-30" value="hiking app backend architecture" style="text;strokeColor=none;fillColor=none;html=1;fontSize=24;fontStyle=1;verticalAlign=middle;align=center;" parent="1" vertex="1">
          <mxGeometry x="80" y="40" width="1590" height="40" as="geometry" />
        </mxCell>
        <mxCell id="K0HO9p8AyU3dDAlsx4_0-2" value="Upload Service" style="rounded=0;whiteSpace=wrap;html=1;" vertex="1" parent="1">
          <mxGeometry x="600" y="300" width="120" height="60" as="geometry" />
        </mxCell>
        <mxCell id="K0HO9p8AyU3dDAlsx4_0-18" value="" style="edgeStyle=orthogonalEdgeStyle;rounded=0;orthogonalLoop=1;jettySize=auto;html=1;entryX=1;entryY=0.5;entryDx=0;entryDy=0;" edge="1" parent="1" source="K0HO9p8AyU3dDAlsx4_0-4" target="K0HO9p8AyU3dDAlsx4_0-15">
          <mxGeometry relative="1" as="geometry">
            <mxPoint x="940" y="490" as="targetPoint" />
            <Array as="points">
              <mxPoint x="980" y="490" />
              <mxPoint x="980" y="491" />
            </Array>
          </mxGeometry>
        </mxCell>
        <mxCell id="K0HO9p8AyU3dDAlsx4_0-4" value="Db" style="shape=cylinder3;whiteSpace=wrap;html=1;boundedLbl=1;backgroundOutline=1;size=15;" vertex="1" parent="1">
          <mxGeometry x="1330" y="450" width="110" height="80" as="geometry" />
        </mxCell>
        <mxCell id="K0HO9p8AyU3dDAlsx4_0-5" value="CDN" style="ellipse;shape=cloud;whiteSpace=wrap;html=1;" vertex="1" parent="1">
          <mxGeometry x="1310" y="270" width="120" height="80" as="geometry" />
        </mxCell>
        <mxCell id="K0HO9p8AyU3dDAlsx4_0-9" value="" style="endArrow=classic;html=1;rounded=0;entryX=0.13;entryY=0.77;entryDx=0;entryDy=0;entryPerimeter=0;" edge="1" parent="1" target="K0HO9p8AyU3dDAlsx4_0-5">
          <mxGeometry width="50" height="50" relative="1" as="geometry">
            <mxPoint x="720" y="330" as="sourcePoint" />
            <mxPoint x="770" y="280" as="targetPoint" />
          </mxGeometry>
        </mxCell>
        <mxCell id="K0HO9p8AyU3dDAlsx4_0-10" value="photo &amp;amp; gpx" style="text;html=1;align=center;verticalAlign=middle;resizable=0;points=[];autosize=1;strokeColor=none;fillColor=none;" vertex="1" parent="1">
          <mxGeometry x="830" y="310" width="90" height="30" as="geometry" />
        </mxCell>
        <mxCell id="K0HO9p8AyU3dDAlsx4_0-11" value="" style="endArrow=classic;html=1;rounded=0;entryX=0;entryY=0.5;entryDx=0;entryDy=0;entryPerimeter=0;" edge="1" parent="1" target="K0HO9p8AyU3dDAlsx4_0-4">
          <mxGeometry width="50" height="50" relative="1" as="geometry">
            <mxPoint x="720" y="330" as="sourcePoint" />
            <mxPoint x="900" y="310" as="targetPoint" />
          </mxGeometry>
        </mxCell>
        <mxCell id="K0HO9p8AyU3dDAlsx4_0-12" value="" style="endArrow=classic;html=1;rounded=0;entryX=0.418;entryY=0;entryDx=0;entryDy=0;entryPerimeter=0;exitX=0.55;exitY=0.95;exitDx=0;exitDy=0;exitPerimeter=0;" edge="1" parent="1" source="K0HO9p8AyU3dDAlsx4_0-5" target="K0HO9p8AyU3dDAlsx4_0-4">
          <mxGeometry width="50" height="50" relative="1" as="geometry">
            <mxPoint x="1445.1999999999998" y="276" as="sourcePoint" />
            <mxPoint x="1370" y="450" as="targetPoint" />
          </mxGeometry>
        </mxCell>
        <mxCell id="K0HO9p8AyU3dDAlsx4_0-13" value="url" style="edgeLabel;html=1;align=center;verticalAlign=middle;resizable=0;points=[];" vertex="1" connectable="0" parent="K0HO9p8AyU3dDAlsx4_0-12">
          <mxGeometry x="-0.0448" relative="1" as="geometry">
            <mxPoint y="-1" as="offset" />
          </mxGeometry>
        </mxCell>
        <mxCell id="K0HO9p8AyU3dDAlsx4_0-15" value="Read Service" style="rounded=0;whiteSpace=wrap;html=1;" vertex="1" parent="1">
          <mxGeometry x="600" y="460" width="120" height="60" as="geometry" />
        </mxCell>
        <mxCell id="K0HO9p8AyU3dDAlsx4_0-20" value="" style="endArrow=classic;html=1;rounded=0;exitX=0.45;exitY=0.95;exitDx=0;exitDy=0;exitPerimeter=0;entryX=1;entryY=0.5;entryDx=0;entryDy=0;" edge="1" parent="1" source="K0HO9p8AyU3dDAlsx4_0-5" target="K0HO9p8AyU3dDAlsx4_0-15">
          <mxGeometry width="50" height="50" relative="1" as="geometry">
            <mxPoint x="810" y="430" as="sourcePoint" />
            <mxPoint x="860" y="380" as="targetPoint" />
          </mxGeometry>
        </mxCell>
        <mxCell id="K0HO9p8AyU3dDAlsx4_0-26" style="edgeStyle=orthogonalEdgeStyle;rounded=0;orthogonalLoop=1;jettySize=auto;html=1;entryX=1;entryY=0.5;entryDx=0;entryDy=0;" edge="1" parent="1" source="K0HO9p8AyU3dDAlsx4_0-21" target="K0HO9p8AyU3dDAlsx4_0-25">
          <mxGeometry relative="1" as="geometry" />
        </mxCell>
        <mxCell id="K0HO9p8AyU3dDAlsx4_0-21" value="Elastic Search" style="rounded=0;whiteSpace=wrap;html=1;" vertex="1" parent="1">
          <mxGeometry x="1320" y="150" width="120" height="60" as="geometry" />
        </mxCell>
        <mxCell id="K0HO9p8AyU3dDAlsx4_0-23" value="" style="endArrow=classic;html=1;rounded=0;entryX=0;entryY=0.5;entryDx=0;entryDy=0;" edge="1" parent="1" target="K0HO9p8AyU3dDAlsx4_0-21">
          <mxGeometry width="50" height="50" relative="1" as="geometry">
            <mxPoint x="720" y="330" as="sourcePoint" />
            <mxPoint x="770" y="280" as="targetPoint" />
          </mxGeometry>
        </mxCell>
        <mxCell id="K0HO9p8AyU3dDAlsx4_0-24" value="heading and text" style="edgeLabel;html=1;align=center;verticalAlign=middle;resizable=0;points=[];" vertex="1" connectable="0" parent="K0HO9p8AyU3dDAlsx4_0-23">
          <mxGeometry x="-0.0713" y="-1" relative="1" as="geometry">
            <mxPoint as="offset" />
          </mxGeometry>
        </mxCell>
        <mxCell id="K0HO9p8AyU3dDAlsx4_0-25" value="Search Service" style="rounded=0;whiteSpace=wrap;html=1;" vertex="1" parent="1">
          <mxGeometry x="600" y="150" width="120" height="60" as="geometry" />
        </mxCell>
        <mxCell id="K0HO9p8AyU3dDAlsx4_0-29" style="edgeStyle=orthogonalEdgeStyle;rounded=0;orthogonalLoop=1;jettySize=auto;html=1;exitX=1;exitY=0.5;exitDx=0;exitDy=0;" edge="1" parent="1" source="K0HO9p8AyU3dDAlsx4_0-27" target="K0HO9p8AyU3dDAlsx4_0-28">
          <mxGeometry relative="1" as="geometry" />
        </mxCell>
        <mxCell id="K0HO9p8AyU3dDAlsx4_0-27" value="Message Service" style="rounded=0;whiteSpace=wrap;html=1;" vertex="1" parent="1">
          <mxGeometry x="600" y="590" width="120" height="60" as="geometry" />
        </mxCell>
        <mxCell id="K0HO9p8AyU3dDAlsx4_0-32" style="edgeStyle=orthogonalEdgeStyle;rounded=0;orthogonalLoop=1;jettySize=auto;html=1;exitX=0.5;exitY=1;exitDx=0;exitDy=0;exitPerimeter=0;entryX=1;entryY=0.5;entryDx=0;entryDy=0;" edge="1" parent="1" source="K0HO9p8AyU3dDAlsx4_0-28" target="K0HO9p8AyU3dDAlsx4_0-27">
          <mxGeometry relative="1" as="geometry" />
        </mxCell>
        <mxCell id="K0HO9p8AyU3dDAlsx4_0-28" value="kafka" style="shape=cylinder3;whiteSpace=wrap;html=1;boundedLbl=1;backgroundOutline=1;size=15;direction=south;" vertex="1" parent="1">
          <mxGeometry x="940" y="600" width="160" height="40" as="geometry" />
        </mxCell>
        <mxCell id="K0HO9p8AyU3dDAlsx4_0-30" style="edgeStyle=orthogonalEdgeStyle;rounded=0;orthogonalLoop=1;jettySize=auto;html=1;entryX=0.5;entryY=1;entryDx=0;entryDy=0;entryPerimeter=0;" edge="1" parent="1" source="K0HO9p8AyU3dDAlsx4_0-28" target="K0HO9p8AyU3dDAlsx4_0-4">
          <mxGeometry relative="1" as="geometry" />
        </mxCell>
        <mxCell id="K0HO9p8AyU3dDAlsx4_0-31" style="edgeStyle=orthogonalEdgeStyle;rounded=0;orthogonalLoop=1;jettySize=auto;html=1;exitX=0.5;exitY=1;exitDx=0;exitDy=0;exitPerimeter=0;entryX=0.5;entryY=0;entryDx=0;entryDy=0;entryPerimeter=0;" edge="1" parent="1" source="K0HO9p8AyU3dDAlsx4_0-4" target="K0HO9p8AyU3dDAlsx4_0-28">
          <mxGeometry relative="1" as="geometry" />
        </mxCell>
      </root>
    </mxGraphModel>
  </diagram>
</mxfile>
